<?xml version="1.0" encoding="UTF-8" standalone="no"?>
<!DOCTYPE svg PUBLIC "-//W3C//DTD SVG 1.1//EN" "http://www.w3.org/Graphics/SVG/1.1/DTD/svg11.dtd">
<svg width="100%" height="100%" viewBox="0 0 4961 4961" version="1.1" xmlns="http://www.w3.org/2000/svg" xmlns:xlink="http://www.w3.org/1999/xlink" xml:space="preserve" xmlns:serif="http://www.serif.com/" style="fill-rule:evenodd;clip-rule:evenodd;stroke-linejoin:round;stroke-miterlimit:2;">
    <rect id="Artboard1" x="0" y="0" width="4960.63" height="4960.63" style="fill:none;"/>
    <g id="Artboard11" serif:id="Artboard1">
        <g id="A-minimalist--flat-vector-graphic-icon-of-a-sheet-ghost-shaped-like-a-cat--designed-with-a-clean--simple-vector-style-suitable-for-software-branding." serif:id="A minimalist, flat vector graphic icon of a sheet ghost shaped like a cat, designed with a clean, simple vector style suitable for software branding." transform="matrix(8.281174,0,0,8.567411,-3461.414206,-3648.636787)">
            <path d="M529.955,795.501C529.967,791.82 530.088,753.606 530.051,749.496C530.013,745.292 528.087,746.061 469.688,709.213C466.2,707.012 435.181,687.441 454.963,659.8C480.359,624.314 520.714,667.503 528.495,668.53C529.615,668.678 529.927,668.099 530.004,654.501C530.459,574.042 564.027,558.203 564.236,544.5C565.452,464.845 559.097,460.832 571.767,452.944C584.289,445.148 622.283,477.812 639.689,486.141C644.063,488.235 711.262,450.398 791.617,484.222C803.108,489.059 803.001,484.468 813.79,478C856.522,452.382 860.111,446.42 871.09,454.96C881.561,463.104 872.498,541.731 876.839,548.271C913.991,604.254 908.883,627.239 910.378,667.553C910.412,668.491 911.198,668.973 921.207,663.025C941.166,651.163 940.991,650.933 942.732,649.916C963.587,637.738 985.427,652.614 989.647,669.455C999.248,707.762 941.631,722.69 911.697,745.75C910.165,746.93 910.273,747.424 910.281,853.5C910.287,938.402 915.539,960.082 880.343,972.002C834.481,987.533 821.207,901.784 756.124,958.052C713.951,994.512 685.194,956.831 673.218,948.933C636.919,924.996 612.184,951.448 602.099,960.037C569.224,988.036 542.561,966.25 534.794,951.341C529.857,941.866 529.934,941.415 529.955,795.501ZM753.64,654.563C753.89,653.806 756.114,647.077 754.32,644.622C747.224,634.909 738.961,652.456 738.174,653.043C732.235,657.474 724.526,624.062 708.063,650.193C701.56,660.516 698.774,643.413 694.541,642.387C671.303,636.758 698.132,686.687 718.883,657.787C721.029,654.798 723.159,661.097 725.858,663.03C742.075,674.647 752.481,656.577 753.64,654.563ZM657.342,580.64C632.468,558.296 617.884,597.894 624.439,616.519C640.383,661.824 683.871,617.578 657.342,580.64ZM795.482,574.094C754.374,581.984 783.75,665.819 812.161,625.278C820.928,612.768 820.66,576.064 795.482,574.094Z" style="fill:rgb(252,253,252);"/>
        </g>
    </g>
</svg>
